<?xml version="1.0" encoding="utf-8"?>
<!-- Generator: Adobe Illustrator 23.0.1, SVG Export Plug-In . SVG Version: 6.00 Build 0)  -->
<svg version="1.1" id="Layer_1" xmlns="http://www.w3.org/2000/svg" xmlns:xlink="http://www.w3.org/1999/xlink" x="0px" y="0px"
	 viewBox="0 0 62.4 56.1" style="enable-background:new 0 0 62.4 56.1;" xml:space="preserve">
<style type="text/css">
	.st0{fill:none;}
	.st1{fill:#2684FF;}
	.st2{fill:url(#SVGID_1_);}
</style>
<title>Bitbucket-blue</title>
<g>
	<g id="Blue">
		<polygon class="st0" points="24.7,37.3 37.8,37.3 40.9,18.9 21.3,18.9 		"/>
		<path class="st1" d="M2,0C0.9,0,0,0.9,0,2c0,0.1,0,0.2,0,0.3l8.5,51.5c0.2,1.3,1.3,2.3,2.7,2.3h40.7c1,0,1.8-0.7,2-1.7l8.5-52.1
			c0.2-1.1-0.6-2.1-1.7-2.3c-0.1,0-0.2,0-0.3,0L2,0z M37.8,37.3h-13l-3.5-18.4h19.7L37.8,37.3z"/>
		
			<linearGradient id="SVGID_1_" gradientUnits="userSpaceOnUse" x1="64.0434" y1="29.4604" x2="33.0234" y2="5.2504" gradientTransform="matrix(1 0 0 -1 0 53.4803)">
			<stop  offset="0.18" style="stop-color:#0052CC"/>
			<stop  offset="1" style="stop-color:#2684FF"/>
		</linearGradient>
		<path class="st2" d="M59.7,18.9H40.9l-3.2,18.4h-13L9.4,55.5c0.5,0.4,1.1,0.7,1.8,0.7h40.7c1,0,1.8-0.7,2-1.7L59.7,18.9z"/>
	</g>
</g>
</svg>
